<svg width="12" height="12" viewBox="0 0 12 12" fill="none" xmlns="http://www.w3.org/2000/svg">
<path fill-rule="evenodd" clip-rule="evenodd" d="M2.63044 1.75773C2.58033 1.77119 2.50545 1.80172 2.46403 1.82556C2.42263 1.84939 2.27616 1.98014 2.13854 2.1161C2.00092 2.25204 1.86457 2.40263 1.83555 2.45072C1.80653 2.49882 1.77123 2.58279 1.75711 2.63734C1.74299 2.69189 1.73145 2.77831 1.73145 2.82938C1.73145 2.88045 1.74306 2.96687 1.75727 3.02142C1.77148 3.07597 1.80232 3.1543 1.82581 3.19549C1.85194 3.24131 2.39574 3.79844 3.22672 4.63076L4.58495 5.99115L3.21857 7.35995C2.03169 8.54895 1.84653 8.74102 1.80906 8.82215C1.78534 8.8735 1.75835 8.94839 1.7491 8.98856C1.73983 9.02872 1.73208 9.10307 1.73184 9.15378C1.73163 9.20448 1.74306 9.2906 1.75727 9.34515C1.77148 9.3997 1.80248 9.47804 1.8262 9.51922C1.84989 9.56041 1.98052 9.70671 2.11648 9.84433C2.25241 9.98195 2.40299 10.1183 2.45109 10.1473C2.49918 10.1764 2.58315 10.2117 2.63769 10.2258C2.69224 10.2399 2.77866 10.2514 2.82973 10.2514C2.8808 10.2514 2.96721 10.2398 3.02176 10.2256C3.07631 10.2114 3.15463 10.1806 3.19582 10.1571C3.24163 10.1309 3.79876 9.5871 4.63107 8.75605L5.99145 7.39773L7.35182 8.75605C8.18413 9.5871 8.74126 10.1309 8.78707 10.1571C8.82826 10.1806 8.90658 10.2114 8.96113 10.2256C9.01568 10.2398 9.10209 10.2514 9.15316 10.2514C9.20423 10.2514 9.29065 10.2399 9.3452 10.2258C9.39974 10.2117 9.48371 10.1764 9.5318 10.1473C9.5799 10.1183 9.73048 9.98195 9.86641 9.84433C10.0024 9.70671 10.133 9.56041 10.1567 9.51922C10.1804 9.47804 10.2114 9.3997 10.2256 9.34515C10.2398 9.2906 10.2514 9.20418 10.2514 9.15311C10.2514 9.10204 10.2398 9.01562 10.2256 8.96107C10.2114 8.90652 10.1806 8.82819 10.1571 8.787C10.1309 8.74119 9.58713 8.18403 8.75612 7.35168L7.39786 5.99125L8.75612 4.63081C9.58713 3.79846 10.1309 3.24131 10.1571 3.19549C10.1806 3.1543 10.2114 3.07597 10.2256 3.02142C10.2398 2.96687 10.2514 2.88045 10.2514 2.82938C10.2514 2.77831 10.2399 2.69189 10.2258 2.63734C10.2117 2.58279 10.1764 2.49882 10.1473 2.45072C10.1183 2.40263 9.98197 2.25204 9.84435 2.1161C9.70673 1.98014 9.56044 1.8495 9.51926 1.82581C9.47807 1.80209 9.39974 1.77109 9.3452 1.75688C9.29065 1.74266 9.20453 1.73123 9.15383 1.73145C9.10313 1.73168 9.02877 1.73944 8.98862 1.74871C8.94845 1.75796 8.87357 1.78495 8.82222 1.80866C8.74109 1.84614 8.54903 2.03131 7.36009 3.21824L5.99135 4.58468L4.63102 3.2264C3.79874 2.39537 3.24163 1.85155 3.19582 1.82542C3.15463 1.80192 3.07631 1.77109 3.02176 1.75688C2.96721 1.74266 2.87735 1.73155 2.82207 1.73215C2.76679 1.73275 2.68056 1.74426 2.63044 1.75773Z" fill="#F02C2C"/>
</svg>
