<svg width="12" height="12" viewBox="0 0 12 12" fill="none" xmlns="http://www.w3.org/2000/svg">
<path fill-rule="evenodd" clip-rule="evenodd" d="M9.69405 2.12711C9.64044 2.14107 9.5571 2.17246 9.50885 2.19684C9.4458 2.22871 8.72713 2.93593 6.95495 4.71008C5.59854 6.06798 4.48023 7.179 4.46982 7.179C4.45939 7.179 4.02082 6.74938 3.49518 6.22431C2.5961 5.32619 2.53257 5.26695 2.42252 5.22464C2.3331 5.19023 2.26424 5.17935 2.1301 5.17843C1.97155 5.17732 1.94184 5.18328 1.8217 5.24019C1.71586 5.29035 1.63889 5.35207 1.44434 5.54283C1.3099 5.67465 1.17513 5.81837 1.14484 5.86223C1.11452 5.9061 1.07068 5.99839 1.0474 6.06732C1.01407 6.16599 1.00686 6.22413 1.01344 6.34064C1.01988 6.45431 1.03635 6.51996 1.08454 6.62385C1.1442 6.75239 1.22251 6.83434 2.67192 8.28499C4.06302 9.67726 4.20496 9.81369 4.29261 9.84264C4.34546 9.86008 4.42504 9.87436 4.46947 9.87436C4.5139 9.87436 4.59347 9.86012 4.64632 9.84272C4.73483 9.81357 4.98077 9.57254 7.77041 6.78114C9.4358 5.11468 10.8235 3.71532 10.8541 3.67145C10.8848 3.62759 10.9289 3.5353 10.9522 3.46637C10.9855 3.3677 10.9927 3.30955 10.9862 3.19305C10.9798 3.08002 10.9634 3.01414 10.9166 2.91412C10.8696 2.81343 10.8068 2.733 10.6452 2.56622C10.5295 2.4469 10.3932 2.31596 10.3423 2.27528C10.2914 2.23457 10.1998 2.18258 10.1389 2.15973C10.0779 2.13687 9.97481 2.11447 9.90978 2.10994C9.84474 2.10541 9.74766 2.11312 9.69405 2.12711Z" fill="#3CCE43"/>
</svg>
